<svg width="179" height="156" viewBox="0 0 179 156" fill="none" xmlns="http://www.w3.org/2000/svg">
<mask id="mask0_281_20" style="mask-type:luminance" maskUnits="userSpaceOnUse" x="0" y="0" width="179" height="156">
<path d="M0.887207 0H178.112V155.654H0.887207" fill="white"/>
</mask>
<g mask="url(#mask0_281_20)">
<mask id="mask1_281_20" style="mask-type:luminance" maskUnits="userSpaceOnUse" x="17" y="51" width="163" height="114">
<path d="M17.9014 51.1182H179.063V164.972H17.9014" fill="white"/>
</mask>
<g mask="url(#mask1_281_20)">
<path d="M76.0878 110.339C75.8964 110.912 77.8104 111.485 81.6385 110.53C85.4665 109.766 81.6385 108.237 79.3416 108.428C77.2362 108.62 76.0878 109.575 76.0878 110.339Z" fill="#5E1313"/>
<path d="M81.83 106.518L74.9395 114.924L78.0019 117.598C82.2128 113.777 86.8065 110.912 91.0173 108.811L81.83 106.518Z" fill="#F58D6C"/>
<path d="M78.0019 117.598L78.5761 117.025C76.6621 115.688 76.4707 113.014 76.4707 113.014L74.9395 114.924L78.0019 117.598Z" fill="white"/>
<path d="M76.0883 112.632C76.2797 112.441 75.8969 112.25 75.7055 112.441L72.4516 115.497L71.8774 117.599L69.9634 118.363L78.7679 125.24C79.3421 125.813 80.1078 126.195 81.0648 126.195L86.4241 126.768L86.8069 126.386L86.4241 126.004L81.4476 125.431C80.682 125.431 79.9164 125.049 79.5335 124.476C78.0023 122.756 75.1313 118.936 74.9399 118.172C74.7485 117.025 76.0883 112.632 76.0883 112.632Z" fill="#ED3D50"/>
<path d="M78.3848 117.215C79.3418 116.833 79.916 115.114 80.873 114.732C82.4042 114.159 83.1698 114.923 83.1698 114.923C83.1698 114.923 81.4472 116.642 81.2558 119.126L78.3848 117.215Z" fill="#ED3D50"/>
<path d="M75.5137 114.923C75.5137 114.923 77.8105 117.024 78.5761 117.215C79.1503 117.406 80.4901 117.024 80.4901 117.024C81.4472 118.171 82.5956 123.137 82.787 123.328C83.5526 123.902 86.2322 123.519 86.615 124.284C87.1893 125.048 86.4236 126.003 86.4236 126.003L80.6815 125.812L77.0449 122.946L74.3652 117.98L75.5137 114.923Z" fill="#592CAB"/>
<path d="M78.5762 121.611C78.5254 121.611 78.4767 121.591 78.4408 121.555C78.4049 121.519 78.3848 121.47 78.3848 121.42C78.3848 121.369 78.4049 121.32 78.4408 121.285C78.4767 121.249 78.5254 121.229 78.5762 121.229L82.0214 120.464C82.0976 120.439 82.1807 120.445 82.2525 120.481C82.3243 120.517 82.3789 120.58 82.4042 120.656C82.4296 120.732 82.4237 120.814 82.3878 120.886C82.3519 120.958 82.289 121.012 82.2128 121.038C80.9843 121.105 79.7658 121.297 78.5762 121.611ZM79.1504 119.891C79.0996 119.891 79.0509 119.871 79.015 119.835C78.9791 119.8 78.959 119.751 78.959 119.7C78.959 119.65 78.9791 119.601 79.015 119.565C79.0509 119.529 79.0996 119.509 79.1504 119.509C79.9521 119.242 80.7935 119.113 81.6386 119.127C81.6894 119.127 81.7381 119.147 81.774 119.183C81.8099 119.219 81.83 119.268 81.83 119.318C81.83 119.369 81.8099 119.418 81.774 119.453C81.7381 119.489 81.6894 119.509 81.6386 119.509C80.793 119.487 79.9503 119.617 79.1504 119.891Z" fill="white"/>
<path d="M89.869 108.62L80.2988 108.238L78.959 109.957L85.8495 111.677L89.6776 109.193L89.869 108.62Z" fill="#D74225"/>
<path d="M106.138 69.0763C106.521 65.0647 106.138 60.862 103.65 59.5248C96.568 55.7042 88.3377 59.3338 88.1463 67.357C88.1463 73.0879 92.1658 86.078 96.3766 91.2358C95.9938 91.2358 91.783 95.6295 92.5486 97.1577L91.5916 97.7308C89.2947 98.686 86.8065 99.068 86.2323 99.6411C85.6581 100.405 86.4237 100.596 86.4237 101.169C86.2323 101.742 82.4042 101.169 81.83 102.507C81.4472 103.462 81.83 103.844 82.2128 104.035C82.4042 104.226 78.1933 104.035 77.8105 105.372C77.6191 106.518 78.7675 107.473 78.7675 107.473C78.7675 107.473 76.4707 107.664 76.2793 110.339C76.6621 108.429 86.8065 111.485 88.9119 110.148L100.013 103.653C103.841 101.551 106.521 99.8322 106.712 96.7757C107.095 89.3255 108.052 73.8521 106.138 69.0763Z" fill="#217177"/>
<path d="M100.396 129.824V129.633L100.205 129.442L88.5292 127.341C88.4531 127.315 88.3699 127.321 88.2982 127.357C88.2264 127.393 88.1718 127.456 88.1464 127.532C88.121 127.608 88.1269 127.691 88.1628 127.762C88.1987 127.834 88.2616 127.888 88.3378 127.914L100.013 129.824H100.396Z" fill="#0F3952"/>
<path d="M85.4673 128.296L91.2094 128.487C91.5922 128.487 91.975 128.296 91.975 127.723C91.975 127.341 91.7836 126.959 91.2094 126.959L85.4673 126.577C85.0845 126.577 84.7017 126.959 84.7017 127.341C84.7017 127.723 85.0845 128.105 85.4673 128.296Z" fill="#0F3952"/>
<path d="M88.3385 127.723C88.3636 127.736 88.391 127.743 88.419 127.745C88.4471 127.747 88.4752 127.744 88.5019 127.735C88.5285 127.726 88.5532 127.712 88.5744 127.694C88.5957 127.675 88.613 127.653 88.6256 127.628C88.6382 127.603 88.6457 127.575 88.6477 127.547C88.6497 127.519 88.6461 127.491 88.6372 127.465C88.6283 127.438 88.6143 127.413 88.5959 127.392C88.5775 127.371 88.555 127.354 88.5299 127.341C88.4791 127.316 88.4204 127.312 88.3665 127.33C88.3127 127.347 88.2682 127.386 88.2428 127.437C88.2174 127.487 88.2132 127.546 88.2312 127.6C88.2491 127.653 88.2877 127.698 88.3385 127.723Z" fill="white"/>
</g>
<mask id="mask2_281_20" style="mask-type:luminance" maskUnits="userSpaceOnUse" x="101" y="92" width="94" height="67">
<path d="M101.02 92.3315H194.325V158.248H101.02" fill="white"/>
</mask>
<g mask="url(#mask2_281_20)">
<path d="M127.725 110.578C129.653 107.954 132.082 105.737 134.872 104.054C137.663 102.371 140.759 101.256 143.983 100.773C147.207 100.289 150.495 100.448 153.658 101.238C156.82 102.029 159.794 103.437 162.41 105.38C165.054 107.305 167.29 109.735 168.986 112.529C170.682 115.323 171.805 118.426 172.289 121.657C172.774 124.888 172.61 128.182 171.808 131.35C171.006 134.517 169.582 137.494 167.618 140.107C165.69 142.731 163.261 144.949 160.47 146.631C157.68 148.314 154.584 149.429 151.36 149.913C148.136 150.396 144.848 150.237 141.685 149.447C138.523 148.656 135.548 147.249 132.933 145.305C130.288 143.381 128.053 140.951 126.357 138.156C124.661 135.362 123.538 132.259 123.053 129.028C122.569 125.798 122.732 122.503 123.534 119.335C124.336 116.168 125.761 113.191 127.725 110.578ZM126.506 109.693C122.362 115.295 120.618 122.311 121.657 129.197C122.696 136.083 126.433 142.276 132.047 146.411C137.66 150.547 144.69 152.288 151.589 151.251C158.489 150.214 164.693 146.484 168.837 140.882C172.981 135.279 174.725 128.263 173.686 121.377C172.647 114.491 168.909 108.299 163.296 104.163C157.683 100.027 150.653 98.2864 143.753 99.3234C136.854 100.36 130.65 104.091 126.506 109.693Z" fill="#0C1A37"/>
<path d="M166.178 139.002C164.373 141.434 162.106 143.489 159.506 145.047C156.906 146.605 154.024 147.637 151.025 148.084C148.025 148.531 144.967 148.384 142.024 147.651C139.082 146.918 136.313 145.614 133.875 143.813C131.438 142.012 129.38 139.749 127.818 137.154C126.257 134.56 125.223 131.683 124.775 128.689C124.328 125.696 124.475 122.643 125.209 119.707C125.944 116.77 127.251 114.006 129.055 111.574C132.699 106.66 138.15 103.393 144.208 102.491C150.266 101.589 156.434 103.125 161.357 106.763C166.28 110.4 169.553 115.84 170.457 121.886C171.361 127.932 169.822 134.089 166.178 139.002ZM129.498 111.905C127.581 114.275 126.165 117.007 125.334 119.938C124.504 122.869 124.276 125.937 124.666 128.958C125.055 131.978 126.053 134.889 127.6 137.515C129.147 140.14 131.21 142.426 133.666 144.234C136.121 146.042 138.918 147.335 141.888 148.036C144.858 148.736 147.939 148.829 150.946 148.309C153.953 147.79 156.823 146.667 159.383 145.011C161.944 143.354 164.142 141.197 165.845 138.67C169.096 133.846 170.355 127.956 169.361 122.227C168.367 116.499 165.195 111.375 160.508 107.923C155.821 104.472 149.98 102.959 144.202 103.701C138.425 104.443 133.157 107.382 129.498 111.905Z" fill="#0C1A37"/>
<path d="M147.893 125.509H147.783L128.169 137.122C128.127 137.127 128.085 137.122 128.047 137.104C128.009 137.087 127.976 137.06 127.953 137.025C127.93 136.991 127.917 136.95 127.916 136.909C127.915 136.867 127.926 136.826 127.947 136.79L147.561 125.067C147.59 125.045 147.623 125.029 147.658 125.02C147.694 125.011 147.73 125.009 147.766 125.014C147.802 125.019 147.837 125.031 147.868 125.05C147.9 125.068 147.927 125.093 147.949 125.122C147.971 125.151 147.987 125.184 147.996 125.219C148.005 125.254 148.007 125.291 148.001 125.327C147.996 125.363 147.984 125.397 147.966 125.429C147.947 125.46 147.923 125.487 147.893 125.509ZM150.775 147.518C150.76 147.577 150.722 147.627 150.67 147.658C150.619 147.689 150.556 147.698 150.498 147.684C150.439 147.669 150.388 147.632 150.357 147.58C150.326 147.528 150.317 147.466 150.331 147.407L148.448 133.14C148.44 133.111 148.439 133.081 148.443 133.051C148.448 133.022 148.458 132.993 148.473 132.968C148.489 132.942 148.509 132.919 148.533 132.902C148.557 132.884 148.585 132.871 148.614 132.864C148.643 132.856 148.673 132.855 148.703 132.859C148.732 132.864 148.761 132.874 148.787 132.889C148.812 132.905 148.835 132.925 148.853 132.949C148.871 132.973 148.883 133.001 148.891 133.03L150.775 147.297V147.518ZM146.674 146.412C146.645 146.471 146.594 146.515 146.531 146.536C146.469 146.557 146.401 146.552 146.342 146.522C146.283 146.493 146.239 146.442 146.218 146.379C146.197 146.317 146.202 146.249 146.231 146.191L146.342 144.863C146.342 144.805 146.365 144.749 146.407 144.707C146.449 144.666 146.505 144.642 146.564 144.642C146.622 144.642 146.679 144.666 146.72 144.707C146.762 144.749 146.785 144.805 146.785 144.863L146.674 146.301V146.412Z" fill="#0C1A37"/>
<path d="M146.896 143.425C146.867 143.484 146.815 143.529 146.753 143.549C146.69 143.57 146.622 143.565 146.564 143.536C146.505 143.507 146.46 143.455 146.439 143.393C146.419 143.331 146.423 143.263 146.453 143.204L147.45 125.287C147.45 125.229 147.473 125.172 147.515 125.131C147.557 125.089 147.613 125.066 147.672 125.066C147.73 125.066 147.787 125.089 147.828 125.131C147.87 125.172 147.893 125.229 147.893 125.287L146.896 143.315V143.425ZM140.026 143.647C139.996 143.705 139.945 143.75 139.882 143.771C139.82 143.791 139.752 143.786 139.693 143.757C139.634 143.728 139.59 143.676 139.569 143.614C139.548 143.552 139.553 143.484 139.582 143.425L145.123 130.485C145.152 130.427 145.204 130.382 145.266 130.361C145.329 130.341 145.397 130.346 145.455 130.375C145.514 130.404 145.559 130.456 145.58 130.518C145.6 130.58 145.596 130.648 145.566 130.707L140.026 143.647Z" fill="#0C1A37"/>
<path d="M147.893 125.509C147.864 125.567 147.812 125.612 147.75 125.633C147.688 125.654 147.62 125.649 147.561 125.619C147.502 125.59 147.457 125.539 147.437 125.476C147.416 125.414 147.421 125.346 147.45 125.288L149.223 118.652C149.23 118.623 149.243 118.595 149.261 118.571C149.279 118.547 149.301 118.527 149.327 118.512C149.353 118.496 149.381 118.486 149.411 118.482C149.441 118.477 149.471 118.479 149.5 118.486C149.529 118.493 149.557 118.506 149.581 118.524C149.605 118.542 149.625 118.564 149.641 118.59C149.656 118.615 149.666 118.644 149.671 118.673C149.675 118.703 149.674 118.733 149.666 118.762L147.893 125.398V125.509ZM150.553 115.555C150.523 115.614 150.472 115.658 150.41 115.679C150.347 115.7 150.279 115.695 150.22 115.666C150.162 115.636 150.117 115.585 150.096 115.523C150.075 115.46 150.08 115.392 150.11 115.334L153.323 103.279C153.33 103.25 153.343 103.222 153.361 103.198C153.379 103.174 153.401 103.154 153.427 103.138C153.453 103.123 153.481 103.113 153.511 103.108C153.541 103.104 153.571 103.106 153.6 103.113C153.629 103.12 153.657 103.133 153.681 103.151C153.705 103.169 153.725 103.191 153.741 103.217C153.756 103.242 153.766 103.271 153.771 103.3C153.775 103.33 153.774 103.36 153.766 103.389L150.553 115.444V115.555Z" fill="#0C1A37"/>
<path d="M170.166 120.642L170.055 120.753L147.671 125.508C147.642 125.516 147.612 125.517 147.582 125.513C147.552 125.508 147.524 125.498 147.498 125.483C147.472 125.467 147.45 125.447 147.432 125.423C147.414 125.399 147.401 125.372 147.394 125.342C147.387 125.313 147.385 125.283 147.39 125.254C147.394 125.224 147.404 125.196 147.42 125.17C147.435 125.144 147.456 125.122 147.48 125.104C147.504 125.086 147.531 125.073 147.56 125.066L169.945 120.31C169.986 120.304 170.028 120.31 170.066 120.327C170.104 120.344 170.137 120.372 170.16 120.407C170.183 120.441 170.196 120.482 170.197 120.523C170.198 120.565 170.188 120.606 170.166 120.642Z" fill="#0C1A37"/>
<path d="M164.958 138.116C164.914 138.175 164.849 138.214 164.776 138.224C164.703 138.235 164.629 138.216 164.57 138.172C164.512 138.128 164.473 138.062 164.462 137.99C164.452 137.917 164.471 137.843 164.515 137.785C166.389 135.312 167.692 132.457 168.33 129.423C168.968 126.388 168.925 123.251 168.205 120.236C167.485 117.22 166.105 114.401 164.165 111.98C162.224 109.559 159.771 107.597 156.981 106.234C154.192 104.871 151.134 104.14 148.028 104.096C144.922 104.051 141.845 104.692 139.017 105.974C136.189 107.256 133.68 109.147 131.67 111.511C129.66 113.875 128.2 116.653 127.392 119.647C127.385 119.676 127.372 119.703 127.354 119.727C127.337 119.751 127.314 119.771 127.288 119.787C127.263 119.802 127.234 119.812 127.204 119.817C127.175 119.821 127.145 119.82 127.115 119.812C127.086 119.805 127.059 119.792 127.035 119.774C127.011 119.757 126.99 119.734 126.975 119.709C126.96 119.683 126.949 119.654 126.945 119.625C126.94 119.595 126.942 119.565 126.949 119.536C127.79 116.501 129.29 113.687 131.342 111.296C133.395 108.904 135.95 106.992 138.826 105.697C141.701 104.401 144.828 103.754 147.983 103.799C151.138 103.845 154.244 104.584 157.081 105.962C159.917 107.341 162.415 109.325 164.397 111.776C166.379 114.226 167.796 117.082 168.548 120.14C169.3 123.199 169.368 126.385 168.748 129.472C168.127 132.56 166.834 135.473 164.958 138.006" fill="#6897AE"/>
</g>
<mask id="mask3_281_20" style="mask-type:luminance" maskUnits="userSpaceOnUse" x="20" y="92" width="94" height="66">
<path d="M20.0278 92.1523H113.167V157.951H20.0278" fill="white"/>
</mask>
<g mask="url(#mask3_281_20)">
<path d="M55.0937 133.776C54.43 133.114 53.877 132.01 53.877 131.016C54.3194 131.679 54.8725 133.003 55.0937 133.776ZM68.4784 140.621C64.3856 141.394 59.8503 139.738 57.0848 136.426C60.1821 139.186 63.9431 140.731 68.4784 140.621ZM80.3144 130.023C80.2038 131.899 79.2082 133.997 77.7702 135.322C80.2038 130.795 79.5401 131.679 80.3144 130.023ZM76.7747 117.326C78.8764 119.093 80.425 121.963 80.5356 124.613C79.6507 121.742 78.6551 119.755 76.7747 117.326ZM57.7485 116.774C60.2927 114.125 64.3856 112.69 68.0359 113.352C64.2749 113.352 60.9564 114.456 57.7485 116.774ZM55.2044 128.477C54.8725 127.704 54.8725 126.6 55.2044 125.827C55.315 126.49 55.4256 127.704 55.2044 128.477ZM63.9431 138.634C60.2927 137.861 57.0848 134.991 55.9787 131.347C57.6379 134.77 60.2927 137.199 63.9431 138.634ZM77.2171 133.887C76.5534 135.432 75.0048 136.867 73.3455 137.419C75.3366 135.874 75.226 135.874 77.2171 133.887ZM78.6551 122.405C79.7613 124.502 79.9825 127.373 79.2082 129.581C79.4295 126.931 79.3188 124.944 78.6551 122.405ZM63.1688 115.45C66.1554 114.125 70.027 114.346 72.7924 116.002C69.6952 114.898 66.5979 114.566 63.1688 115.45Z" fill="white"/>
<path d="M72.2399 133.666C71.4656 134.549 70.2488 135.101 69.3639 134.328C67.2622 135.322 63.833 133.776 63.1693 131.568C60.7358 131.347 58.7447 129.25 59.2978 127.373C57.9703 124.613 60.1827 121.742 63.1693 122.074C63.9437 121.522 65.0498 121.301 66.0454 121.522C68.2577 118.982 72.6824 120.086 73.678 123.398C75.116 123.73 76.3328 124.944 76.6646 126.269C79.5406 119.534 61.7313 113.021 57.5279 123.067C53.7669 132.01 65.7135 141.394 73.5673 133.997C72.793 133.997 72.2399 133.666 72.2399 133.666Z" fill="white"/>
<path d="M61.8414 128.146C57.6379 128.477 47.5718 128.698 42.4834 128.477C48.0142 128.035 57.9698 128.035 61.8414 128.146ZM52.992 111.696C55.868 114.125 59.9609 118.32 62.3944 121.19C59.5184 118.762 55.4256 114.566 52.992 111.696ZM50.2266 118.32C53.7663 119.976 59.1866 122.957 62.6157 125.165C58.9653 123.509 53.5451 120.528 50.2266 118.32ZM66.266 131.679C66.7085 136.205 66.9297 143.933 66.8191 146.803C66.3767 143.05 66.1554 135.211 66.266 131.679ZM63.1688 131.568C61.067 134.439 57.6379 138.634 55.0937 141.063C57.1955 138.192 60.7352 134.107 63.1688 131.568ZM73.6774 130.464C76.9959 131.568 82.0843 133.666 85.1815 135.211C81.863 134.107 76.8853 132.01 73.6774 130.464ZM72.4606 125.054C75.7791 123.619 80.9781 121.742 84.4072 120.859C81.1993 122.294 76.0003 124.171 72.4606 125.054ZM69.0315 123.509C69.6952 119.645 71.9075 110.481 73.3455 106.065C72.4606 110.592 70.2482 119.755 69.0315 123.509ZM61.5095 109.377C62.5051 111.585 63.5006 114.898 63.8325 116.885C63.0581 115.118 61.952 111.696 61.5095 109.377ZM85.2922 129.47C82.8586 129.581 79.0976 129.139 77.1065 128.587C79.0976 128.587 82.8586 128.918 85.2922 129.47ZM74.8942 144.154C73.5668 142.387 72.1287 139.517 71.5757 137.861C72.6818 139.296 74.1198 142.167 74.8942 144.154ZM48.6779 121.963C50.4478 122.074 52.992 122.626 54.3194 123.178C52.8814 123.178 50.3372 122.626 48.6779 121.963Z" fill="white"/>
<path d="M77.9914 136.646C77.8808 136.977 75.0047 144.264 63.39 141.724C63.39 141.724 64.7174 143.16 66.9297 143.38C69.0314 143.491 69.5845 143.16 69.5845 143.16C69.5845 143.16 72.0181 144.153 73.2349 143.601C74.4517 143.049 75.3366 141.504 75.3366 141.504C75.3366 141.504 76.664 141.504 77.7702 139.848C78.7657 138.302 78.5445 137.971 78.5445 137.971C78.5445 137.971 79.54 137.64 79.54 136.094C79.4294 134.548 77.9914 136.646 77.9914 136.646ZM78.6551 116.222C78.6551 116.222 81.7524 119.755 81.9736 122.956C81.9736 122.956 82.9692 120.527 82.7479 119.203C82.6373 117.767 83.7435 117.767 82.8585 116.443C81.9736 115.228 80.2037 115.67 80.2037 115.67C80.2037 115.67 78.8763 114.124 77.2171 113.793C75.4472 113.572 75.1154 113.793 75.1154 113.793L78.6551 116.222ZM54.8725 117.767C54.8725 117.767 53.3238 118.099 52.7707 119.644L51.9964 121.411C51.9964 121.411 50.8903 121.521 50.2265 122.956C49.5628 124.502 50.0053 124.612 50.0053 124.612C50.0053 124.612 49.231 124.723 48.8991 126.489C48.5673 128.256 50.8903 129.801 50.8903 129.801C51.3327 131.016 52.3283 131.457 52.3283 131.457C51.2221 127.593 53.2132 121.631 54.8725 117.767Z" fill="white"/>
<path d="M46.5757 110.371C48.5008 107.736 50.9313 105.509 53.7261 103.819C56.5208 102.129 59.624 101.011 62.8555 100.528C66.087 100.045 69.3824 100.208 72.5503 101.007C75.7183 101.806 78.6956 103.225 81.3094 105.182C83.9496 107.103 86.1809 109.529 87.8739 112.318C89.5669 115.108 90.6878 118.205 91.1715 121.43C91.6552 124.655 91.492 127.944 90.6915 131.106C89.891 134.268 88.4691 137.239 86.5084 139.848C84.5832 142.483 82.1527 144.71 79.358 146.4C76.5633 148.089 73.4601 149.208 70.2286 149.691C66.9971 150.174 63.7017 150.011 60.5338 149.212C57.3658 148.413 54.3885 146.994 51.7747 145.037C49.1345 143.115 46.9032 140.69 45.2102 137.9C43.5172 135.111 42.3963 132.014 41.9126 128.789C41.4289 125.564 41.592 122.275 42.3925 119.113C43.193 115.951 44.6149 112.98 46.5757 110.371ZM45.4695 109.598C41.3329 115.176 39.5859 122.165 40.6128 129.029C41.6396 135.892 45.3563 142.068 50.9451 146.196C56.5338 150.325 63.537 152.068 70.4138 151.043C77.2907 150.018 83.478 146.309 87.6146 140.731C91.7511 135.153 93.4982 128.164 92.4713 121.3C91.4444 114.437 87.7278 108.262 82.139 104.133C79.3718 102.089 76.2281 100.609 72.8877 99.7771C69.5472 98.9454 66.0753 98.7785 62.6703 99.2859C55.7934 100.311 49.6061 104.02 45.4695 109.598Z" fill="#0C1A37"/>
<path d="M85.0704 138.744C83.2691 141.172 81.0062 143.223 78.4109 144.779C75.8156 146.334 72.9387 147.364 69.9445 147.81C66.9503 148.256 63.8974 148.109 60.9601 147.378C58.0228 146.646 55.2587 145.344 52.8255 143.547C50.3923 141.749 48.3378 139.49 46.7791 136.9C45.2205 134.31 44.1883 131.439 43.7415 128.45C43.2947 125.462 43.442 122.415 44.175 119.483C44.908 116.552 46.2124 113.793 48.0137 111.365C51.6515 106.46 57.0925 103.199 63.1395 102.298C69.1866 101.398 75.3445 102.931 80.2585 106.562C85.1725 110.193 88.4402 115.623 89.3426 121.658C90.245 127.694 88.7082 133.84 85.0704 138.744ZM48.4561 111.806C46.5426 114.172 45.1286 116.899 44.2996 119.825C43.4705 122.75 43.2435 125.813 43.6322 128.828C44.0209 131.844 45.0173 134.749 46.5613 137.37C48.1054 139.991 50.165 142.272 52.6162 144.077C55.0674 145.882 57.8594 147.173 60.8239 147.873C63.7885 148.572 66.8641 148.665 69.8656 148.146C72.867 147.627 75.7322 146.507 78.2882 144.853C80.8443 143.199 83.0385 141.046 84.7385 138.523C87.9835 133.708 89.2408 127.828 88.2483 122.11C87.2557 116.392 84.0899 111.277 79.411 107.831C74.732 104.386 68.9011 102.876 63.134 103.617C57.367 104.357 52.1089 107.291 48.4561 111.806Z" fill="#0C1A37"/>
<path d="M62.9474 104.52H62.8368C62.7262 104.631 62.6155 104.52 62.6155 104.41L62.2837 102.754C62.2837 102.695 62.307 102.639 62.3485 102.598C62.39 102.556 62.4463 102.533 62.5049 102.533C62.5636 102.533 62.6199 102.556 62.6614 102.598C62.7029 102.639 62.7262 102.695 62.7262 102.754L63.058 104.3L62.9474 104.52ZM63.2792 105.956L63.1686 106.066C62.9474 106.176 62.8368 106.066 62.8368 105.956L62.7262 105.404C62.7189 105.367 62.7189 105.33 62.726 105.294C62.7332 105.258 62.7475 105.223 62.7681 105.192C62.7886 105.162 62.815 105.135 62.8458 105.115C62.8766 105.094 62.9111 105.08 62.9474 105.072C62.9837 105.065 63.0211 105.065 63.0574 105.072C63.0938 105.079 63.1283 105.094 63.1591 105.114C63.19 105.135 63.2164 105.161 63.237 105.192C63.2576 105.223 63.272 105.257 63.2792 105.293V105.956ZM66.1553 122.074L66.0447 122.185L65.7128 121.964L63.1686 107.832C63.154 107.759 63.169 107.683 63.2105 107.621C63.252 107.559 63.3165 107.516 63.3899 107.501C63.4632 107.487 63.5394 107.502 63.6016 107.543C63.6638 107.584 63.707 107.649 63.7217 107.722L66.2659 121.964L66.1553 122.074ZM66.7084 125.276L53.2131 143.602C53.1913 143.631 53.164 143.656 53.1328 143.674C53.1015 143.693 53.0669 143.705 53.031 143.71C52.995 143.715 52.9584 143.713 52.9232 143.704C52.8881 143.695 52.855 143.679 52.8259 143.658C52.7969 143.636 52.7724 143.609 52.7539 143.577C52.7354 143.546 52.7232 143.512 52.7181 143.476C52.713 143.44 52.715 143.403 52.724 143.368C52.733 143.333 52.7489 143.3 52.7706 143.271L66.3765 124.945C66.3983 124.923 66.4242 124.906 66.4526 124.894C66.4811 124.882 66.5116 124.876 66.5424 124.876C66.5733 124.876 66.6038 124.882 66.6322 124.894C66.6607 124.906 66.6866 124.923 66.7084 124.945C66.7302 124.966 66.7475 124.992 66.7592 125.021C66.771 125.049 66.7771 125.08 66.7771 125.11C66.7771 125.141 66.771 125.171 66.7592 125.2C66.7475 125.228 66.7302 125.254 66.7084 125.276ZM71.3543 112.69C71.3249 112.749 71.2735 112.793 71.2113 112.814C71.149 112.835 71.0811 112.83 71.0224 112.801C70.9638 112.771 70.9191 112.72 70.8984 112.658C70.8777 112.596 70.8825 112.528 70.9118 112.469L74.1197 103.637C74.1342 103.608 74.1543 103.582 74.1789 103.561C74.2034 103.54 74.2319 103.524 74.2627 103.513C74.2935 103.503 74.3261 103.499 74.3585 103.501C74.3909 103.504 74.4225 103.512 74.4516 103.527C74.4806 103.541 74.5065 103.561 74.5278 103.586C74.5491 103.61 74.5653 103.639 74.5756 103.67C74.5859 103.7 74.59 103.733 74.5877 103.765C74.5854 103.797 74.5767 103.829 74.5622 103.858L71.3543 112.69ZM68.4782 120.639C68.4489 120.698 68.3975 120.742 68.3352 120.763C68.273 120.784 68.2051 120.779 68.1464 120.749C68.0877 120.72 68.0431 120.669 68.0224 120.607C68.0016 120.545 68.0064 120.477 68.0358 120.418L69.8056 115.45C69.835 115.392 69.8864 115.347 69.9487 115.326C70.0109 115.306 70.0788 115.31 70.1375 115.34C70.1962 115.369 70.2408 115.42 70.2615 115.482C70.2823 115.545 70.2775 115.612 70.2481 115.671L68.4782 120.639Z" fill="#0C1A37"/>
<path d="M88.9424 120.086L88.8318 120.196L66.5978 125.385C66.5688 125.393 66.5386 125.394 66.5089 125.39C66.4793 125.385 66.4509 125.375 66.4252 125.36C66.3995 125.344 66.3771 125.324 66.3593 125.3C66.3414 125.276 66.3285 125.249 66.3213 125.22C66.314 125.191 66.3125 125.161 66.3169 125.131C66.3213 125.101 66.3315 125.073 66.347 125.047C66.3624 125.022 66.3827 124.999 66.4067 124.982C66.4308 124.964 66.4581 124.951 66.4872 124.944L88.7212 119.755C88.7625 119.749 88.8045 119.755 88.8426 119.772C88.8806 119.789 88.9131 119.816 88.9362 119.851C88.9593 119.886 88.9721 119.926 88.9733 119.968C88.9744 120.009 88.9637 120.05 88.9424 120.086Z" fill="#0C1A37"/>
<path d="M88.0575 133.224L87.8363 133.335L66.4872 125.386C66.4285 125.371 66.3781 125.334 66.347 125.282C66.3158 125.23 66.3066 125.168 66.3213 125.11C66.3359 125.051 66.3733 125.001 66.4252 124.97C66.477 124.939 66.5391 124.929 66.5978 124.944L87.9469 132.893C87.9787 132.904 88.0076 132.922 88.0313 132.946C88.055 132.97 88.0729 133 88.0835 133.031C88.0942 133.063 88.0974 133.097 88.0929 133.131C88.0884 133.164 88.0763 133.196 88.0575 133.224ZM73.4561 134.659C73.4353 134.683 73.4098 134.702 73.3812 134.715C73.3525 134.727 73.3215 134.734 73.2901 134.734C73.2587 134.734 73.2277 134.727 73.1991 134.715C73.1705 134.702 73.145 134.683 73.1242 134.659L71.0225 131.789C70.9785 131.73 70.9596 131.657 70.97 131.584C70.9803 131.512 71.0191 131.446 71.0778 131.403C71.1365 131.359 71.2102 131.34 71.2828 131.35C71.3554 131.36 71.4209 131.399 71.465 131.458L73.4561 134.328V134.659ZM75.6684 137.64V137.751C75.5578 137.861 75.3365 137.751 75.3365 137.64L74.2304 136.205C74.2086 136.176 74.1927 136.143 74.1837 136.108C74.1747 136.073 74.1727 136.036 74.1778 136C74.183 135.964 74.1951 135.93 74.2137 135.899C74.2322 135.868 74.2566 135.84 74.2857 135.819C74.3147 135.797 74.3478 135.781 74.383 135.772C74.4182 135.763 74.4548 135.761 74.4907 135.766C74.5267 135.771 74.5613 135.783 74.5925 135.802C74.6238 135.82 74.6511 135.845 74.6728 135.874L75.6684 137.419V137.64ZM74.0091 146.804L73.8985 146.914L73.5667 146.804L67.704 129.471C67.6894 129.434 67.6822 129.396 67.6827 129.356C67.6832 129.317 67.6913 129.279 67.7068 129.243C67.7222 129.207 67.7445 129.175 67.7725 129.147C67.8005 129.12 67.8336 129.099 67.8699 129.084C67.9062 129.07 67.945 129.062 67.9841 129.063C68.0233 129.063 68.0619 129.071 68.0978 129.087C68.1704 129.118 68.2277 129.177 68.2571 129.25L74.0091 146.583V146.804Z" fill="#0C1A37"/>
<path d="M79.319 108.273H78.9872C72.1289 103.195 62.9477 102.863 55.647 107.28C55.618 107.294 55.5863 107.303 55.5539 107.305C55.5215 107.307 55.489 107.303 55.4582 107.293C55.4274 107.283 55.3989 107.266 55.3743 107.245C55.3498 107.224 55.3297 107.198 55.3152 107.169C55.3006 107.14 55.292 107.109 55.2897 107.076C55.2874 107.044 55.2915 107.011 55.3018 106.981C55.312 106.95 55.3283 106.921 55.3495 106.897C55.3708 106.872 55.3967 106.852 55.4258 106.838C59.0685 104.635 63.2859 103.563 67.5408 103.759C71.7958 103.956 75.8959 105.412 79.319 107.942V108.273ZM83.8543 137.861C83.8326 137.89 83.8053 137.914 83.774 137.933C83.7428 137.951 83.7082 137.963 83.6722 137.968C83.6363 137.973 83.5997 137.971 83.5645 137.962C83.5293 137.953 83.4962 137.938 83.4672 137.916C83.4381 137.894 83.4137 137.867 83.3952 137.836C83.3767 137.805 83.3645 137.77 83.3593 137.734C83.3542 137.698 83.3562 137.662 83.3652 137.627C83.3742 137.591 83.3901 137.558 83.4119 137.529C86.7304 133.113 88.1684 127.593 87.2835 122.073C87.2688 122.015 87.278 121.953 87.3092 121.901C87.3403 121.849 87.3907 121.812 87.4494 121.797C87.5081 121.783 87.5702 121.792 87.622 121.823C87.6739 121.854 87.7113 121.904 87.7259 121.963C88.6109 127.593 87.1729 133.224 83.8543 137.861Z" fill="#6897AE"/>
</g>
<mask id="mask4_281_20" style="mask-type:luminance" maskUnits="userSpaceOnUse" x="31" y="36" width="164" height="116">
<path d="M31.7246 36.0835H194.563V151.122H31.7246" fill="white"/>
</mask>
<g mask="url(#mask4_281_20)">
<path d="M100.38 123.328C99.3405 123.328 98.3138 123.554 97.3709 123.99C96.428 124.426 95.5916 125.062 94.9199 125.853C94.2481 126.645 93.7572 127.572 93.4812 128.572C93.2051 129.572 93.1506 130.62 93.3215 131.643C93.4923 132.666 93.8844 133.64 94.4705 134.497C95.0565 135.353 95.8225 136.072 96.7151 136.603C97.6077 137.134 98.6055 137.465 99.6391 137.573C100.673 137.68 101.717 137.561 102.7 137.225C104.303 136.677 105.658 135.579 106.526 134.127C107.393 132.675 107.716 130.963 107.438 129.295C107.16 127.628 106.297 126.113 105.005 125.02C103.713 123.927 102.074 123.328 100.38 123.328ZM105.408 127.381L103.087 128.732C102.507 129.118 101.734 128.732 101.54 127.96L101.153 125.451C100.96 124.872 101.54 124.293 102.12 124.293C103.474 124.486 104.634 124.872 105.601 125.837C105.988 126.223 105.988 126.995 105.408 127.381ZM99.993 125.644L100.573 128.346C100.573 128.925 100.186 129.504 99.4128 129.504L96.7052 129.118C96.1251 129.118 95.7383 128.346 95.9317 127.767C96.5118 126.609 97.2854 125.644 98.4458 125.065C99.026 124.679 99.7996 125.065 99.993 125.644ZM95.5449 131.434C95.5449 130.855 95.9317 130.276 96.7052 130.276L99.2194 130.662C99.993 130.662 100.38 131.434 100.186 132.013L99.026 134.33C98.8326 135.102 97.8656 135.102 97.4788 134.716C96.5118 133.944 95.9317 132.786 95.5449 131.434ZM99.993 134.909L101.153 132.399C101.347 131.82 102.314 131.627 102.7 132.206L104.634 133.944C105.215 134.33 105.021 135.102 104.441 135.488C103.331 136.131 102.043 136.402 100.767 136.26C100.186 136.26 99.7996 135.488 99.993 134.909ZM105.408 132.979L103.474 131.241C102.894 130.855 103.087 130.083 103.667 129.697L105.988 128.346C106.568 127.96 107.342 128.346 107.342 128.925C107.729 130.276 107.535 131.627 106.955 132.786C106.762 133.365 105.988 133.558 105.408 132.979Z" fill="#67A3C3"/>
<path d="M95.9319 131.435C95.9319 131.049 96.3187 130.856 96.7055 130.856H99.413L99.9932 131.242L101.54 131.049L94.3847 129.311L94.5781 131.435H95.9319ZM101.734 131.049L103.281 130.47C103.088 130.084 103.281 129.698 103.668 129.505L105.602 127.96C106.182 127.574 106.955 127.767 107.149 128.346L107.342 128.732L108.309 128.346C108.162 127.878 107.967 127.425 107.729 126.995L107.536 126.416L106.569 125.258L101.734 131.049ZM69.6301 125.258C69.6301 124.388 69.2837 123.553 68.6672 122.938C68.0506 122.323 67.2144 121.977 66.3424 121.977C65.4705 121.977 64.6342 122.323 64.0176 122.938C63.4011 123.553 63.0547 124.388 63.0547 125.258C63.0547 126.128 63.4011 126.963 64.0176 127.578C64.6342 128.194 65.4705 128.539 66.3424 128.539C67.2144 128.539 68.0506 128.194 68.6672 127.578C69.2837 126.963 69.6301 126.128 69.6301 125.258Z" fill="#113952"/>
<path d="M102.12 123.329L66.3423 122.364C66.2654 122.364 66.1916 122.333 66.1372 122.279C66.0828 122.225 66.0522 122.151 66.0522 122.074C66.0522 121.998 66.0828 121.924 66.1372 121.87C66.1916 121.815 66.2654 121.785 66.3423 121.785L102.12 122.75C102.197 122.75 102.271 122.781 102.326 122.835C102.38 122.889 102.411 122.963 102.411 123.04C102.411 123.116 102.38 123.19 102.326 123.244C102.271 123.299 102.197 123.329 102.12 123.329ZM100.187 137.612H99.9931L65.5687 128.734C65.5433 128.721 65.5207 128.703 65.5021 128.682C65.4835 128.661 65.4693 128.636 65.4603 128.609C65.4513 128.582 65.4477 128.554 65.4498 128.525C65.4518 128.497 65.4593 128.469 65.472 128.444C65.4847 128.419 65.5023 128.396 65.5238 128.378C65.5452 128.359 65.5701 128.345 65.5971 128.336C65.624 128.327 65.6524 128.323 65.6808 128.325C65.7091 128.327 65.7367 128.335 65.7621 128.348L100.187 137.226C100.238 137.226 100.287 137.247 100.323 137.283C100.36 137.319 100.38 137.368 100.38 137.419C100.38 137.471 100.36 137.52 100.323 137.556C100.287 137.592 100.238 137.612 100.187 137.612Z" fill="#376E92"/>
<path d="M101.54 137.805L99.2196 137.419C99.1943 137.407 99.1716 137.389 99.153 137.368C99.1344 137.346 99.1202 137.322 99.1112 137.295C99.1022 137.268 99.0987 137.239 99.1007 137.211C99.1027 137.183 99.1103 137.155 99.1229 137.13C99.1356 137.105 99.1532 137.082 99.1747 137.063C99.1961 137.045 99.221 137.031 99.248 137.022C99.2749 137.013 99.3033 137.009 99.3317 137.011C99.36 137.013 99.3876 137.021 99.413 137.033C100.327 137.173 101.26 137.131 102.158 136.911C103.056 136.69 103.902 136.295 104.648 135.749C105.393 135.202 106.023 134.514 106.502 133.725C106.981 132.935 107.299 132.059 107.439 131.146C107.579 130.234 107.537 129.303 107.316 128.406C107.095 127.51 106.7 126.666 106.152 125.922C105.604 125.178 104.915 124.549 104.124 124.071C103.333 123.593 102.455 123.275 101.54 123.136C101.489 123.136 101.44 123.116 101.404 123.08C101.367 123.043 101.347 122.994 101.347 122.943C101.347 122.892 101.367 122.843 101.404 122.807C101.44 122.77 101.489 122.75 101.54 122.75C103.541 122.75 105.459 123.543 106.874 124.955C108.288 126.367 109.083 128.281 109.083 130.278C109.083 132.274 108.288 134.189 106.874 135.601C105.459 137.012 103.541 137.805 101.54 137.805ZM65.5689 128.734C64.0217 128.348 62.8613 126.996 62.8613 125.259C62.8613 123.329 64.4085 121.785 66.3424 121.785C66.4194 121.785 66.4932 121.815 66.5476 121.87C66.602 121.924 66.6325 121.998 66.6325 122.074C66.6325 122.151 66.602 122.225 66.5476 122.279C66.4932 122.333 66.4194 122.364 66.3424 122.364C65.6396 122.426 64.979 122.725 64.4701 123.213C63.9612 123.7 63.6345 124.347 63.5442 125.045C63.454 125.744 63.6055 126.452 63.9737 127.052C64.3419 127.653 64.9048 128.11 65.5689 128.348C65.6202 128.348 65.6693 128.368 65.7056 128.404C65.7419 128.44 65.7623 128.489 65.7623 128.541C65.7623 128.592 65.7419 128.641 65.7056 128.677C65.6693 128.713 65.6202 128.734 65.5689 128.734Z" fill="#376E92"/>
<path d="M63.6347 129.119H63.4413C62.2809 128.153 61.5073 126.802 61.5073 125.258C61.5073 122.749 63.6347 120.626 66.3422 120.626C66.4191 120.626 66.4929 120.656 66.5473 120.711C66.6017 120.765 66.6323 120.838 66.6323 120.915C66.6323 120.992 66.6017 121.066 66.5473 121.12C66.4929 121.174 66.4191 121.205 66.3422 121.205C65.481 121.242 64.6514 121.538 63.963 122.056C63.2747 122.574 62.7602 123.288 62.4876 124.104C62.215 124.921 62.1972 125.8 62.4366 126.627C62.676 127.453 63.1612 128.187 63.8281 128.732C63.8794 128.758 63.9184 128.803 63.9365 128.857C63.9546 128.912 63.9504 128.971 63.9248 129.022C63.8991 129.073 63.8541 129.112 63.7997 129.13C63.7453 129.148 63.686 129.144 63.6347 129.119Z" fill="#67A3C3"/>
<path d="M98.0591 86.4608H99.6062V84.7236H98.0591V86.4608Z" fill="#B4D2D0"/>
<path d="M66.5353 125.259C66.5353 125.336 66.5047 125.409 66.4503 125.464C66.3959 125.518 66.3221 125.549 66.2452 125.549C66.1682 125.549 66.0944 125.518 66.04 125.464C65.9856 125.409 65.9551 125.336 65.9551 125.259C65.9551 125.182 65.9856 125.109 66.04 125.054C66.0944 125 66.1682 124.969 66.2452 124.969C66.3221 124.969 66.3959 125 66.4503 125.054C66.5047 125.109 66.5353 125.182 66.5353 125.259Z" fill="#113952"/>
<path d="M80.654 75.6524C80.5742 75.5996 80.5088 75.5279 80.4635 75.4437C80.4182 75.3595 80.3945 75.2654 80.3945 75.1699C80.3945 75.0743 80.4182 74.9802 80.4635 74.8961C80.5088 74.8119 80.5742 74.7402 80.654 74.6873H82.3946C82.482 74.6295 82.5835 74.5963 82.6883 74.5914C82.7931 74.5866 82.8972 74.6101 82.9896 74.6597C83.0821 74.7092 83.1593 74.7828 83.2132 74.8726C83.267 74.9624 83.2955 75.0652 83.2955 75.1699C83.2955 75.2746 83.267 75.3773 83.2132 75.4672C83.1593 75.557 83.0821 75.6306 82.9896 75.6801C82.8972 75.7296 82.7931 75.7532 82.6883 75.7483C82.5835 75.7434 82.482 75.7103 82.3946 75.6524H80.654Z" fill="#67A3C3"/>
<path d="M89.5492 74.6877C89.5238 74.7004 89.4962 74.7079 89.4679 74.7099C89.4396 74.7119 89.4111 74.7084 89.3842 74.6994C89.3572 74.6904 89.3323 74.6763 89.3109 74.6577C89.2894 74.6391 89.2719 74.6165 89.2592 74.5912C89.2465 74.5658 89.2389 74.5382 89.2369 74.51C89.2349 74.4817 89.2384 74.4533 89.2474 74.4264C89.2564 74.3995 89.2706 74.3747 89.2892 74.3533C89.3078 74.3319 89.3305 74.3143 89.3559 74.3016C90.3228 73.9156 91.0964 73.1435 91.87 72.3715L92.4502 71.5994C92.4758 71.5482 92.5208 71.5093 92.5752 71.4912C92.6296 71.4731 92.689 71.4773 92.7403 71.5029C92.7916 71.5285 92.8306 71.5734 92.8487 71.6277C92.8668 71.682 92.8626 71.7412 92.837 71.7924L92.2568 72.5645C91.5256 73.4662 90.6001 74.1919 89.5492 74.6877ZM120.879 89.3571C117.785 89.3571 114.11 88.392 110.436 85.6897C110.385 85.6641 110.346 85.6192 110.328 85.5649C110.309 85.5106 110.314 85.4514 110.339 85.4002C110.365 85.349 110.41 85.3101 110.464 85.292C110.519 85.2739 110.578 85.2781 110.629 85.3037C121.459 92.8314 129.775 86.6548 132.29 83.5665C134.61 80.6712 136.544 76.4248 138.478 72.7575C140.219 69.0902 141.766 66.0019 143.12 64.6507C144.86 63.1066 147.374 62.9136 148.922 64.4577C150.082 65.6158 150.469 67.353 149.889 69.4762C149.308 71.9854 147.374 74.8807 144.667 77.969C144.642 77.9943 144.611 78.0144 144.578 78.0282C144.545 78.0419 144.509 78.0489 144.474 78.0489C144.438 78.0489 144.402 78.0419 144.369 78.0282C144.336 78.0144 144.306 77.9943 144.28 77.969C144.255 77.9436 144.235 77.9135 144.221 77.8804C144.207 77.8473 144.2 77.8118 144.2 77.776C144.2 77.7401 144.207 77.7046 144.221 77.6715C144.235 77.6384 144.255 77.6083 144.28 77.583C150.082 71.5994 150.662 66.7739 148.535 64.8438C147.181 63.4926 145.054 63.4926 143.507 65.0368C142.153 66.3879 140.606 69.4762 138.865 72.9505C137.124 76.6179 134.997 80.8643 132.483 83.9526C130.936 85.8827 126.681 89.3571 120.879 89.3571Z" fill="#113952"/>
<path d="M137.125 53.0695C132.87 58.6671 133.451 68.125 133.257 68.511C135.578 74.1085 140.219 79.513 143.894 82.2153L141.96 85.8827C140.026 84.5315 132.677 80.0921 126.488 68.704C126.295 68.511 125.328 57.1229 129.003 48.6301L137.125 53.0695Z" fill="#F65B2B"/>
<path d="M148.728 124.872L146.214 121.398C144.087 118.503 142.346 115.221 141.379 111.747L136.544 95.1474L133.644 85.3035L131.323 77.3898H136.351C136.582 77.3898 136.803 77.2982 136.966 77.1354C137.13 76.9725 137.221 76.7515 137.221 76.5212C137.221 76.2908 137.13 76.0699 136.966 75.907C136.803 75.7441 136.582 75.6526 136.351 75.6526H130.356C130.212 75.6323 130.064 75.653 129.931 75.7125C129.798 75.772 129.685 75.8678 129.604 75.9888C129.523 76.1099 129.478 76.2512 129.474 76.3966C129.471 76.542 129.508 76.6856 129.582 76.8107L131.903 84.7244H87.2287L84.5211 76.2316C84.3277 75.8456 84.1343 75.6526 83.7476 75.6526L81.2334 75.8456C81.0282 75.8456 80.8315 75.927 80.6864 76.0717C80.5413 76.2165 80.4598 76.4129 80.4598 76.6177C80.4598 76.8224 80.5413 77.0188 80.6864 77.1636C80.8315 77.3084 81.0282 77.3898 81.2334 77.3898H83.1674L85.8749 85.4965L65.5684 124.872V125.258H65.375V125.451C65.4525 125.623 65.5901 125.76 65.7618 125.837V126.03H66.1486L101.347 131.049H101.733C101.797 131.06 101.863 131.06 101.927 131.049V130.856H102.12L135.384 96.8846L139.832 112.133C140.993 115.8 142.54 119.275 144.86 122.363L147.375 125.837C147.438 125.926 147.518 126.001 147.611 126.059C147.704 126.117 147.807 126.156 147.915 126.174C148.022 126.192 148.133 126.188 148.239 126.164C148.346 126.139 148.446 126.094 148.535 126.03C148.624 125.967 148.699 125.887 148.757 125.794C148.815 125.702 148.854 125.599 148.872 125.491C148.89 125.384 148.887 125.274 148.862 125.167C148.837 125.061 148.792 124.961 148.728 124.872ZM100.38 129.312L67.5023 124.679L86.4551 87.6197L100.38 129.312ZM101.927 128.733L87.8089 86.4616H132.29L134.804 95.1474L101.927 128.733Z" fill="#67A3C3"/>
<path d="M140.026 99.2005L139.832 99.0075C136.158 90.3217 134.031 82.987 133.45 77.1965C132.87 71.2129 134.224 68.3176 135.384 66.9665C136.738 65.6154 138.672 65.2293 140.606 66.0014C144.474 67.3525 148.342 72.564 148.729 79.7057C148.741 79.7311 148.749 79.7586 148.751 79.7869C148.753 79.8152 148.749 79.8436 148.74 79.8705C148.731 79.8973 148.717 79.9222 148.698 79.9436C148.68 79.965 148.657 79.9826 148.632 79.9952C148.606 80.0079 148.579 80.0155 148.55 80.0175C148.522 80.0195 148.494 80.0159 148.467 80.0069C148.44 79.998 148.415 79.9838 148.393 79.9652C148.372 79.9467 148.354 79.9241 148.342 79.8987C147.955 72.757 144.087 67.7386 140.413 66.3874C138.672 65.8084 136.931 66.0014 135.771 67.3525C134.611 68.5106 133.257 71.2129 133.837 77.1965C134.8 84.7958 136.886 92.2109 140.026 99.2005Z" fill="#376E92"/>
<path d="M80.2663 75.8458C79.3756 75.8472 78.5182 75.5078 77.8707 74.8974C77.2231 74.287 76.8346 73.4521 76.7852 72.5645V70.4413C76.7852 70.3901 76.8055 70.341 76.8418 70.3048C76.8781 70.2686 76.9273 70.2483 76.9786 70.2483C77.0298 70.2483 77.079 70.2686 77.1153 70.3048C77.1516 70.341 77.1719 70.3901 77.1719 70.4413L77.3653 72.5645C77.3653 73.3324 77.671 74.0688 78.215 74.6118C78.759 75.1547 79.4969 75.4598 80.2663 75.4598L87.6153 75.0737C89.7426 75.0737 91.87 74.1087 93.0304 72.3715L93.8039 71.5994C93.8552 71.5738 93.9146 71.5696 93.969 71.5877C94.0234 71.6058 94.0684 71.6447 94.094 71.6959C94.1197 71.7471 94.1239 71.8064 94.1058 71.8607C94.0876 71.915 94.0486 71.9599 93.9973 71.9855L93.4172 72.7575C92.0634 74.4947 89.936 75.4598 87.6153 75.6528L80.2663 75.8458Z" fill="#67A3C3"/>
<path d="M74.4653 70.8269C74.4653 70.8269 74.8521 69.8618 75.8191 70.0548C76.9795 70.0548 79.687 71.0199 80.654 71.0199H94.5784C94.5784 71.0199 96.319 71.0199 96.319 73.5291H82.9747C82.3945 73.5291 81.4276 74.3012 80.654 74.3012C79.4936 74.3012 78.1398 72.5641 74.4653 70.8269Z" fill="#F63B4E"/>
<path d="M86.2617 71.02L89.9362 73.5293H94.7711L92.6438 71.02H86.2617Z" fill="#B82D41"/>
<path d="M130.937 56.737C130.937 57.123 131.517 57.8951 134.031 59.0532C136.545 60.2113 135.191 56.1579 135.191 56.1579C135.191 56.1579 131.13 54.2278 130.937 56.737Z" fill="#5E1212"/>
<path d="M126.488 56.3499C126.488 56.3499 130.55 59.6312 134.804 59.4382L136.351 57.508L127.649 53.4546L126.488 56.3499Z" fill="#DA4017"/>
<path d="M127.841 57.8947C128.422 54.8064 132.483 60.0179 136.157 59.6318C136.157 57.3156 138.091 51.332 138.091 51.332L127.455 53.6482L127.841 57.8947Z" fill="#592CAB"/>
<path d="M74.8521 98.4287H74.6587V98.0427L86.4558 85.4965C86.4815 85.4453 86.5264 85.4064 86.5808 85.3883C86.6352 85.3702 86.6946 85.3744 86.7459 85.4C86.7972 85.4256 86.8362 85.4705 86.8543 85.5248C86.8725 85.5791 86.8682 85.6383 86.8426 85.6895L75.0455 98.4287H74.8521ZM149.889 125.258C149.985 125.548 150.01 125.857 149.963 126.158C149.916 126.46 149.798 126.746 149.619 126.993C149.439 127.24 149.204 127.441 148.932 127.58C148.659 127.719 148.358 127.791 148.052 127.791C147.746 127.791 147.445 127.719 147.173 127.58C146.9 127.441 146.665 127.24 146.486 126.993C146.306 126.746 146.188 126.46 146.141 126.158C146.094 125.857 146.119 125.548 146.215 125.258C146.342 124.872 146.588 124.536 146.918 124.297C147.248 124.059 147.645 123.931 148.052 123.931C148.46 123.931 148.856 124.059 149.186 124.297C149.516 124.536 149.762 124.872 149.889 125.258Z" fill="#113952"/>
<path d="M144.667 128.539H144.473C143.7 127.574 143.313 126.416 143.313 125.258C143.313 125.207 143.333 125.158 143.37 125.122C143.406 125.085 143.455 125.065 143.506 125.065C143.558 125.065 143.607 125.085 143.643 125.122C143.679 125.158 143.7 125.207 143.7 125.258C143.7 126.416 144.087 127.381 144.86 128.153C144.911 128.179 144.95 128.224 144.969 128.278C144.987 128.333 144.982 128.392 144.957 128.443C144.931 128.494 144.886 128.533 144.832 128.551C144.777 128.569 144.718 128.565 144.667 128.539ZM147.954 130.084C147.878 130.084 147.804 130.053 147.749 129.999C147.695 129.945 147.664 129.871 147.664 129.794C147.664 129.717 147.695 129.644 147.749 129.589C147.804 129.535 147.878 129.505 147.954 129.505C148.904 129.299 149.755 128.775 150.365 128.02C150.975 127.265 151.307 126.325 151.307 125.355C151.307 124.385 150.975 123.444 150.365 122.689C149.755 121.934 148.904 121.41 147.954 121.205C147.878 121.205 147.804 121.174 147.749 121.12C147.695 121.066 147.664 120.992 147.664 120.915C147.664 120.838 147.695 120.765 147.749 120.711C147.804 120.656 147.878 120.626 147.954 120.626C149.211 120.626 150.416 121.124 151.305 122.011C152.193 122.898 152.693 124.1 152.693 125.355C152.693 126.609 152.193 127.812 151.305 128.699C150.416 129.585 149.211 130.084 147.954 130.084Z" fill="#67A3C3"/>
<path d="M141.379 104.027L140.992 103.641L139.058 97.464C138.985 97.3981 138.93 97.3147 138.898 97.2217C138.866 97.1287 138.858 97.029 138.876 96.9322C138.893 96.8354 138.935 96.7445 138.997 96.6682C139.059 96.592 139.14 96.5328 139.231 96.4962C139.323 96.4597 139.422 96.4471 139.52 96.4595C139.618 96.4718 139.711 96.5089 139.79 96.5671C139.869 96.6253 139.933 96.7028 139.974 96.7921C140.015 96.8815 140.033 96.9799 140.025 97.0779L141.959 103.255C141.991 103.345 142 103.441 141.986 103.536C141.972 103.63 141.934 103.72 141.877 103.796C141.819 103.872 141.744 103.933 141.657 103.974C141.57 104.014 141.475 104.032 141.379 104.027ZM70.5963 103.448L70.2095 103.255V102.482L74.4642 97.85C74.5042 97.7664 74.5637 97.6936 74.6377 97.6377C74.7117 97.5819 74.7981 97.5445 74.8896 97.5289C74.9811 97.5132 75.075 97.5197 75.1635 97.5477C75.2519 97.5758 75.3323 97.6246 75.398 97.6901C75.4636 97.7556 75.5125 97.8359 75.5406 97.9242C75.5688 98.0125 75.5752 98.1062 75.5595 98.1975C75.5438 98.2888 75.5064 98.375 75.4504 98.4489C75.3944 98.5228 75.3215 98.5822 75.2378 98.6221L70.7897 103.255L70.5963 103.448Z" fill="#113952"/>
<path d="M134.804 95.1466H136.544L134.03 86.4608H132.29L134.804 95.1466ZM92.0635 86.4608H97.2852V84.7236H92.0635V86.4608Z" fill="#B4D2D0"/>
<path d="M107.922 86.4608H117.399V84.7236H106.375L107.922 86.4608ZM148.149 125.257C148.149 125.309 148.128 125.358 148.092 125.394C148.056 125.43 148.007 125.45 147.955 125.45C147.904 125.45 147.855 125.43 147.819 125.394C147.782 125.358 147.762 125.309 147.762 125.257C147.762 125.206 147.782 125.157 147.819 125.121C147.855 125.085 147.904 125.064 147.955 125.064C148.007 125.064 148.056 125.085 148.092 125.121C148.128 125.157 148.149 125.206 148.149 125.257ZM97.6725 116.186L95.932 110.588H94.1914L95.7386 115.414L97.6725 116.186Z" fill="#113952"/>
<path d="M142.346 79.8989L145.441 79.3198H146.021V79.5128H146.214C146.353 79.6312 146.483 79.7603 146.601 79.8989L146.795 80.0919L146.988 80.2849L147.181 80.4779L147.375 80.864L147.568 81.057L147.761 81.443L147.955 81.8291C148.032 81.9314 148.065 82.0601 148.047 82.1868C148.029 82.3135 147.961 82.4278 147.858 82.5046C147.756 82.5814 147.627 82.6144 147.5 82.5963C147.373 82.5782 147.258 82.5105 147.181 82.4081L146.988 82.0221L146.601 81.8291L146.408 81.636L146.214 81.443H146.021V81.25H145.634C145.511 81.1755 145.381 81.1109 145.247 81.057H145.828L142.927 81.8291C142.8 81.8671 142.666 81.8798 142.534 81.8664C142.403 81.853 142.275 81.8139 142.158 81.7511C142.041 81.6884 141.938 81.6033 141.854 81.5008C141.77 81.3982 141.708 81.2802 141.67 81.1535C141.631 81.0268 141.619 80.8938 141.632 80.7621C141.646 80.6305 141.685 80.5028 141.748 80.3863C141.81 80.2698 141.896 80.1668 141.998 80.0831C142.101 79.9995 142.219 79.9369 142.346 79.8989Z" fill="#FF8F6B"/>
<path d="M149.115 82.6009C149.115 82.6009 148.922 82.0218 150.082 82.4078V83.1799L149.115 82.6009Z" fill="#DA4017"/>
<path d="M146.408 79.1262H148.729L148.149 81.4424L146.795 82.6005L146.408 79.1262Z" fill="#376E92"/>
<path d="M141.38 87.0407H138.672C138.467 87.0407 138.27 86.9593 138.125 86.8145C137.98 86.6697 137.898 86.4734 137.898 86.2686C137.898 86.0638 137.98 85.8674 138.125 85.7227C138.27 85.5779 138.467 85.4965 138.672 85.4965H141.38C143.507 85.4965 145.441 83.7594 145.441 81.4431C145.441 79.1269 143.507 77.3898 141.38 77.3898H136.351C136.12 77.3898 135.899 77.2982 135.736 77.1354C135.573 76.9725 135.481 76.7515 135.481 76.5212C135.481 76.2908 135.573 76.0699 135.736 75.907C135.899 75.7441 136.12 75.6526 136.351 75.6526H141.38C144.474 75.6526 146.988 78.1618 146.988 81.4431C146.988 84.5314 144.474 87.0407 141.38 87.0407Z" fill="#F63B4E"/>
<path d="M148.728 79.3202H148.922C149.207 79.4742 149.468 79.6693 149.695 79.8993C150.105 80.3235 150.374 80.8622 150.469 81.4434V82.4085L150.276 83.3736C150.148 84.8536 150.019 86.3334 149.889 87.813L150.082 88.3921L150.276 88.7781H150.469V88.9712H150.662C150.714 88.9968 150.753 89.0416 150.771 89.0959C150.789 89.1502 150.785 89.2095 150.759 89.2607C150.733 89.3119 150.688 89.3508 150.634 89.3689C150.58 89.387 150.52 89.3828 150.469 89.3572H150.276L150.082 89.1642H149.889L149.502 88.5851L149.309 88.0061L149.115 86.2689C149.173 85.2957 149.302 84.328 149.502 83.3736V82.2155L149.695 82.0225L149.502 81.8295V81.6365L149.309 81.0574L148.922 80.6714L148.535 80.4784L148.342 80.2853C148.243 80.2928 148.145 80.2752 148.055 80.2341C147.966 80.1931 147.888 80.1299 147.83 80.0506C147.771 79.9713 147.734 79.8785 147.722 79.7809C147.709 79.6834 147.722 79.5842 147.759 79.4929C147.795 79.4016 147.855 79.3211 147.931 79.259C148.008 79.1968 148.099 79.1552 148.196 79.1379C148.293 79.1206 148.392 79.1283 148.486 79.1602C148.579 79.1921 148.662 79.2472 148.728 79.3202Z" fill="#376E92"/>
<path d="M131.71 78.3545H129.969L130.743 80.8637L132.677 82.2149L131.71 78.3545Z" fill="#113952"/>
</g>
<mask id="mask5_281_20" style="mask-type:luminance" maskUnits="userSpaceOnUse" x="70" y="4" width="94" height="66">
<path d="M70.1831 4.06714H163.448V69.9548H70.1831" fill="white"/>
</mask>
<g mask="url(#mask5_281_20)">
<path d="M134.759 41.767C134.759 41.767 135.534 42.0986 136.753 41.5459L143.399 48.0683L138.082 51.9376L135.202 53.0431L132.987 44.0885L134.759 41.767Z" fill="#F58D6C"/>
<path d="M143.399 48.068L139.522 44.3093C140.187 46.852 141.737 47.6258 139.744 50.7212L143.399 48.068Z" fill="#D74225"/>
<path d="M138.193 43.5356C136.642 42.2091 136.199 41.5458 134.87 41.3247C129.331 40.5508 135.202 37.3449 134.759 35.6866C132.544 31.2646 140.629 26.4004 142.734 28.6114C142.18 27.3954 142.845 26.9532 143.842 27.2848C146.168 28.0587 150.598 32.5912 150.931 36.9027L138.193 43.5356Z" fill="#5E1313"/>
<path d="M150.709 42.6509L151.706 45.6357C151.595 46.0779 150.044 46.5201 150.044 46.5201L150.709 42.6509Z" fill="#F58D6C"/>
<path d="M140.851 46.078C141.516 45.7464 141.959 44.9725 142.18 44.6409H140.408L139.965 44.862L140.851 46.078Z" fill="#EF5C2E"/>
<path d="M149.38 46.8516L150.156 46.9621C150.377 46.9621 150.488 47.2938 150.267 47.4043C150.045 47.6254 149.713 47.5149 149.602 47.9571C149.491 48.3993 149.824 48.6204 149.491 48.952C149.27 49.2837 148.827 48.7309 148.827 48.7309L149.38 46.8516Z" fill="#F58D6C"/>
<path d="M128.445 41.7663L90.1205 48.952L84.8037 19.7668L123.018 12.6917L128.445 41.7663Z" fill="#592CAB"/>
<path d="M86.2434 29.1634L85.8003 27.063L120.248 19.9878L120.581 22.0882L86.2434 29.1634Z" fill="#060606"/>
<path d="M128.224 41.7663L123.572 42.6507L118.145 13.576L122.797 12.6917L128.224 41.7663Z" fill="#CCCCCC"/>
<path d="M129.11 41.7664L124.458 42.6508L118.809 12.139L123.461 11.2546L129.11 41.7664Z" fill="#592CAB"/>
<path d="M100.421 47.4044L96.7657 48.0677L91.7812 18.2192L95.3258 17.6665L100.421 47.4044ZM121.245 43.2035L117.368 43.8668L112.384 14.1289L116.26 13.4656L121.245 43.2035Z" fill="#060606"/>
<path d="M97.8738 59.5655C98.3169 58.7917 100.311 48.7316 100.421 46.7417C100.421 44.9729 99.203 43.7569 97.2092 44.8624C95.7693 45.6362 95.9908 46.7417 95.2155 46.2995C94.5509 45.8573 93.4432 45.194 92.4463 45.194C90.231 45.0835 81.8128 52.0481 89.5664 62.7715L97.8738 59.5655Z" fill="#5E1313"/>
<path d="M148.826 49.2846C146.389 51.6061 139.3 46.8525 137.971 40.33C136.199 32.2599 144.838 28.3907 149.491 34.692C151.706 37.898 150.93 41.5461 150.709 42.3199C150.598 43.3149 150.266 47.8474 148.826 49.2846Z" fill="#F58D6C"/>
<path d="M149.601 33.9169C150.377 35.2435 150.598 36.349 150.709 37.565C148.05 37.565 146.278 34.8013 146.167 34.3591C146.167 34.3591 146.389 32.0376 147.386 31.927C147.829 31.927 149.047 32.8114 149.601 33.9169Z" fill="#D74225"/>
<path d="M136.974 40.3299C134.98 30.8227 144.174 25.9585 149.491 33.3653C150.155 34.3602 150.931 35.6868 150.931 36.9029C148.383 37.7873 148.272 34.4708 147.165 35.1341C146.057 35.6868 145.392 40.9932 141.183 41.3249L136.974 40.3299ZM150.709 39.2244H150.377L150.155 39.1139H149.491L149.048 39.2244H148.715L148.272 39.335H147.94L147.608 39.4455L147.275 39.5561L147.054 39.6666H146.832L146.943 39.5561L147.165 39.4455L147.386 39.2244L147.718 39.1139L148.051 39.0033L148.383 38.7822C148.673 38.688 148.969 38.6141 149.269 38.5611L149.601 38.4506H150.044C150.264 38.4043 150.486 38.3674 150.709 38.34H150.82C151.263 38.34 151.595 38.5611 151.484 38.7822C151.484 39.1139 151.152 39.2244 150.709 39.2244Z" fill="#5E1313"/>
<path d="M138.858 39.7769H151.485V40.8824H151.153C151.153 40.8824 151.264 43.7566 149.491 43.7566C147.719 43.7566 147.387 40.4402 147.387 40.4402H138.747L138.858 39.7769Z" fill="#1F170D"/>
<path d="M149.824 42.9829C149.27 43.0934 148.716 42.4301 148.605 41.8774L148.273 40.5508L148.162 40.6613C148.051 40.993 147.94 41.3246 148.051 41.7668L148.494 42.7618C148.827 43.0934 149.38 43.4251 149.824 43.0934V42.9829Z" fill="#6D799F"/>
<path d="M150.709 40.3295V41.3245L150.487 42.7616V42.8721L150.82 41.7667L151.041 40.4401C151.041 40.219 150.709 40.1084 150.709 40.3295Z" fill="white"/>
<path d="M142.291 42.3189C142.291 42.3189 142.181 39.5552 140.408 39.3341C136.975 38.6708 137.196 44.3088 139.855 45.4143C141.184 45.8565 142.181 44.6405 142.181 44.6405L142.291 42.3189Z" fill="#F58D6C"/>
<path d="M138.525 41.2135L138.636 41.1029C138.687 40.9453 138.762 40.7962 138.857 40.6607C139.002 40.4695 139.192 40.3175 139.411 40.2185C139.696 40.1075 140.012 40.1075 140.297 40.2185L140.962 40.7713C141.111 40.9709 141.224 41.1955 141.294 41.4346L141.405 41.6557V41.8768L141.516 42.0979C141.549 42.1478 141.568 42.2058 141.571 42.2657C141.573 42.3256 141.56 42.3852 141.531 42.438C141.503 42.4908 141.461 42.535 141.409 42.5658C141.358 42.5966 141.299 42.6128 141.239 42.6128C141.179 42.6128 141.12 42.5966 141.068 42.5658C141.017 42.535 140.974 42.4908 140.946 42.438C140.917 42.3852 140.904 42.3256 140.907 42.2657C140.91 42.2058 140.929 42.1478 140.962 42.0979L140.851 41.9873V41.5451C140.802 41.3517 140.728 41.1658 140.629 40.9924L140.186 40.5502H139.522C139.32 40.5719 139.129 40.6484 138.968 40.7713C138.878 40.87 138.803 40.9818 138.746 41.1029V41.2135L138.636 41.324C138.606 41.324 138.578 41.3124 138.557 41.2916C138.537 41.2709 138.525 41.2428 138.525 41.2135Z" fill="#D74225"/>
<path d="M141.405 27.2839C141.183 26.6206 140.519 26.3995 139.854 26.5101C139.3 26.7312 139.079 27.3945 139.3 27.9472C139.522 28.5 140.297 28.8316 140.851 28.6105C141.405 28.5 141.737 27.8367 141.405 27.2839Z" fill="#592CAB"/>
<path d="M148.605 34.2488L150.377 34.5804C150.71 34.691 151.042 35.0226 151.042 35.4648C151.042 35.7965 150.71 36.1281 150.266 36.1281L149.159 36.0176L148.605 34.2488Z" fill="#217177"/>
<path d="M133.651 37.6767C133.651 37.6767 128.888 39.556 126.562 37.4556C126.119 38.0083 127.448 39.9982 129.996 40.3299C135.202 40.9932 140.74 36.9028 140.74 36.9028L133.651 37.6767Z" fill="#469CA0"/>
<path d="M133.651 37.6757C133.651 37.6757 130.771 28.1684 140.075 26.9524C147.829 25.9574 150.155 32.4799 150.155 32.4799C150.155 32.4799 148.604 33.2537 149.158 36.0175L133.651 37.6757Z" fill="#2A858B"/>
<path d="M139.965 26.9529C130.883 28.2795 133.652 37.6762 133.652 37.6762L137.75 37.234C137.529 36.9024 135.535 28.8322 139.965 26.9529Z" fill="#469CA0"/>
<path d="M147.165 36.2386L149.158 36.0175C148.605 33.2537 150.155 32.4799 150.155 32.4799C150.155 32.4799 147.829 25.9574 140.076 26.9524C140.74 27.0629 145.171 27.6157 147.165 36.2386Z" fill="#217177"/>
<path d="M135.535 29.8272C135.424 29.6061 135.202 29.6061 135.092 29.6061C134.87 29.7166 134.759 29.8272 134.87 30.0483C134.981 30.2694 135.202 30.3799 135.313 30.2694C135.535 30.1588 135.645 30.0483 135.535 29.8272ZM140.962 29.2744C140.851 29.0533 140.63 28.9428 140.519 29.0533C140.298 29.0533 140.187 29.2744 140.298 29.385C140.408 29.6061 140.63 29.7166 140.741 29.6061C140.962 29.6061 141.073 29.385 140.962 29.2744ZM146.501 28.6111C146.39 28.39 146.168 28.2795 146.057 28.39C145.836 28.39 145.725 28.6111 145.836 28.8322L146.279 29.0533C146.501 28.9428 146.611 28.7217 146.501 28.6111Z" fill="#5E1313"/>
<path d="M141.515 43.4247C141.494 43.2783 141.431 43.1409 141.334 43.029C141.237 42.9171 141.11 42.8353 140.968 42.7933C140.826 42.7513 140.675 42.7509 140.532 42.7921C140.39 42.8333 140.262 42.9144 140.164 43.0257C140.067 43.1371 140.003 43.2741 139.981 43.4205C139.959 43.5668 139.98 43.7164 140.04 43.8515C140.101 43.9865 140.199 44.1015 140.323 44.1826C140.447 44.2637 140.592 44.3076 140.74 44.3091L141.405 45.8568C141.411 45.9262 141.434 45.993 141.471 46.0519C141.509 46.1108 141.559 46.16 141.619 46.1956C141.679 46.2312 141.747 46.2521 141.817 46.2567C141.886 46.2613 141.956 46.2493 142.02 46.2219C142.084 46.1945 142.141 46.1523 142.186 46.0988C142.231 46.0453 142.262 45.982 142.278 45.9141C142.293 45.8462 142.293 45.7755 142.276 45.7079C142.259 45.6404 142.226 45.5777 142.18 45.5252L141.405 43.9775L141.515 43.4247Z" fill="#ECDBCF"/>
</g>
<mask id="mask6_281_20" style="mask-type:luminance" maskUnits="userSpaceOnUse" x="9" y="30" width="189" height="134">
<path d="M9.74854 30.5349H197.342V163.062H9.74854" fill="white"/>
</mask>
<g mask="url(#mask6_281_20)">
<path d="M93.5195 128.15L93.7423 127.928L105.105 126.149C105.164 126.149 105.221 126.172 105.262 126.214C105.304 126.256 105.328 126.312 105.328 126.371C105.328 126.43 105.304 126.487 105.262 126.529C105.221 126.57 105.164 126.594 105.105 126.594L93.7423 128.373L93.5195 128.15Z" fill="#0F3952"/>
<path d="M108.002 127.039L102.432 127.261C101.986 127.261 101.541 126.817 101.541 126.372C101.541 125.927 101.986 125.705 102.432 125.482H107.779C108.224 125.482 108.67 125.705 108.67 126.15C108.67 126.594 108.447 127.039 108.002 127.039Z" fill="#0F3952"/>
<path d="M92.1828 113.697C92.4056 114.364 94.188 114.141 97.0843 111.695C99.9806 109.25 95.9703 109.694 94.188 110.584C92.4056 111.695 91.96 113.03 92.1828 113.697Z" fill="#5E1313"/>
<path d="M95.3019 107.916L93.5195 118.367L97.307 119.034C99.0894 113.919 101.54 109.25 103.991 105.47L95.3019 107.916Z" fill="#F58D6C"/>
<path d="M97.307 119.034L97.7526 118.367C95.3019 118.145 93.9651 116.143 93.9651 116.143L93.5195 118.367L97.307 119.034Z" fill="white"/>
<path d="M93.5196 115.921H92.8512L91.7372 119.923L92.4056 122.147L91.0688 123.704L101.763 125.038C102.654 125.26 104.214 125.705 104.882 125.482L107.556 125.26L109.338 124.593L108.892 124.371L103.991 123.926C103.323 124.148 102.654 124.371 101.986 124.148C99.9807 123.259 95.7475 121.702 95.0792 121.035C94.4108 120.146 93.5196 115.921 93.5196 115.921Z" fill="#ED3D50"/>
<path d="M102.877 106.582L94.8567 110.14L94.4111 112.363L100.872 110.807L102.877 107.027V106.582Z" fill="#D74225"/>
<path d="M99.3125 65.2232C97.9757 61.6654 95.7478 58.1077 93.0742 58.1077C85.2764 58.1077 79.7065 64.7785 83.2713 71.894C85.722 76.5636 94.8566 85.9027 100.872 88.5711C100.426 88.7934 98.8669 94.3525 100.204 95.4643L99.5353 96.3537C98.1985 98.1326 96.1934 99.6891 95.9706 100.356C95.7478 101.246 96.639 101.023 96.639 101.69C96.8618 102.135 93.297 103.247 93.297 104.803C93.5198 105.693 93.9654 105.693 94.1882 105.915C94.6338 105.915 90.8463 107.694 91.2919 109.028C91.7375 110.14 92.8514 110.362 92.8514 110.362C92.8514 110.362 91.0691 111.474 92.1831 113.698C91.7375 112.141 101.54 110.362 102.877 108.139L109.338 97.6879C112.012 94.1301 113.349 91.4618 112.235 88.7934C109.115 82.345 103.323 68.5586 99.3125 65.2232Z" fill="#469CA0"/>
<path d="M91.9606 71.6709L90.1782 69.225L93.9657 66.5566L94.4113 67.4461C94.4113 70.1144 91.9606 71.6709 91.9606 71.6709Z" fill="#ECDBCF"/>
<path d="M94.4111 67.4469L94.1883 67.0022L91.292 70.7823L91.9604 71.6718C91.9604 71.6718 94.4111 70.1152 94.4111 67.4469Z" fill="#D29B80"/>
<path d="M87.7272 73.0048C87.6681 73.0048 87.6114 72.9814 87.5697 72.9397C87.5279 72.898 87.5044 72.8414 87.5044 72.7825C87.5044 72.7235 87.5279 72.6669 87.5697 72.6252C87.6114 72.5835 87.6681 72.5601 87.7272 72.5601C91.7375 72.5601 93.2971 70.1141 93.7427 69.2247C94.411 67.8905 94.411 66.334 93.7427 65.6669C93.7131 65.6079 93.7082 65.5397 93.7291 65.4771C93.75 65.4146 93.795 65.3629 93.8541 65.3334C93.9131 65.3039 93.9816 65.299 94.0442 65.3199C94.1069 65.3407 94.1587 65.3856 94.1882 65.4446C94.8566 66.334 94.8566 67.8905 94.1882 69.447C93.7427 70.5589 91.9603 73.0048 87.7272 73.0048Z" fill="#217177"/>
<path d="M97.5308 118.589C98.1991 117.922 97.7536 116.143 98.4219 115.254C99.3131 113.919 100.427 114.364 100.427 114.364C100.427 114.364 99.7587 116.588 100.873 118.811L97.5308 118.589Z" fill="#ED3D50"/>
<path d="M93.9653 117.922C93.9653 117.922 97.0845 118.811 97.5301 118.589L99.3124 117.477C100.426 117.922 103.991 121.257 104.214 121.257L108.224 122.592C109.115 123.036 108.893 124.37 108.893 124.37L103.768 124.815L99.3124 124.148L94.6337 121.257L93.9653 117.922Z" fill="#592CAB"/>
<path d="M99.5348 120.368C99.4757 120.368 99.419 120.344 99.3773 120.303C99.3355 120.261 99.312 120.204 99.312 120.146C99.312 119.923 100.203 119.034 101.094 118.589C101.153 118.56 101.222 118.555 101.285 118.576C101.347 118.596 101.399 118.641 101.429 118.7C101.458 118.759 101.463 118.827 101.442 118.89C101.421 118.953 101.376 119.004 101.317 119.034C100.655 119.379 100.053 119.83 99.5348 120.368ZM99.9804 122.147C99.9658 122.176 99.9455 122.202 99.9208 122.223C99.8961 122.245 99.8674 122.261 99.8364 122.271C99.8053 122.282 99.7726 122.286 99.7399 122.284C99.7073 122.281 99.6755 122.273 99.6462 122.258C99.6169 122.243 99.5909 122.223 99.5694 122.198C99.548 122.174 99.5316 122.145 99.5213 122.114C99.5109 122.083 99.5068 122.051 99.5091 122.018C99.5115 121.985 99.5202 121.954 99.5348 121.924C99.7576 121.702 100.872 120.368 102.208 119.478C102.238 119.464 102.269 119.455 102.302 119.453C102.335 119.451 102.367 119.455 102.399 119.465C102.43 119.475 102.458 119.492 102.483 119.513C102.508 119.534 102.528 119.56 102.543 119.59C102.557 119.619 102.566 119.651 102.568 119.683C102.571 119.716 102.566 119.748 102.556 119.779C102.546 119.81 102.529 119.839 102.508 119.864C102.486 119.888 102.46 119.909 102.431 119.923C101.546 120.586 100.725 121.33 99.9804 122.147Z" fill="white"/>
</g>
<mask id="mask7_281_20" style="mask-type:luminance" maskUnits="userSpaceOnUse" x="74" y="28" width="95" height="67">
<path d="M74.6128 28.2988H168.064V94.3183H74.6128" fill="white"/>
</mask>
<g mask="url(#mask7_281_20)">
<path d="M100.251 54.5547C97.2539 54.5547 94.7012 55.4409 92.5925 56.8809C91.4826 62.4194 103.358 63.3056 106.577 63.9702L106.133 62.9733L105.689 62.641C104.912 59.5394 103.136 54.5547 100.251 54.5547Z" fill="#217177"/>
<path d="M134.657 41.4837C122.448 36.6098 111.35 48.2408 98.9189 44.1422C101.25 46.4684 96.5882 50.8993 96.1443 57.2132C95.7003 62.9733 104.135 61.0902 111.35 66.6287C120.007 60.7579 132.215 60.9794 137.986 51.6747C137.986 51.6747 140.761 46.4684 134.657 41.4837Z" fill="#592CAB"/>
<path d="M136.433 41.0405C131.771 39.2682 127.443 39.7113 123.003 40.819C126.666 40.1544 130.439 40.0436 134.213 41.4836C140.317 46.4683 137.654 51.6745 137.654 51.6745C132.104 60.4254 120.895 60.7577 112.459 65.7424L113.014 66.1855C121.671 60.3147 133.88 60.5362 139.762 51.2314C139.762 51.2314 142.426 46.0252 136.433 41.0405Z" fill="#060606"/>
<path d="M121.116 47.4653C120.45 48.13 111.016 57.5455 110.683 66.1856L111.349 66.6287C115.345 63.9702 120.117 62.5302 124.557 60.8686L121.116 47.4653Z" fill="#CCCCCC"/>
<path d="M115.234 59.7599L115.567 59.8707H115.789C115.9 59.7599 117.121 59.6491 117.01 59.5383C116.899 59.4276 108.464 49.0151 100.806 44.252H99.6958C107.465 48.6828 115.234 59.6491 115.234 59.7599Z" fill="#CCCCCC"/>
<path d="M119.896 63.0838C119.723 63.0838 119.554 63.0437 119.399 62.9668C119.245 62.8899 119.111 62.7783 119.008 62.6407C118.897 62.5299 110.24 50.4559 100.917 45.3604L99.4741 44.2527L100.695 43.9204L102.027 44.0312L103.137 44.2527C110.119 48.7753 116.12 54.6516 120.784 61.533C120.863 61.6473 120.918 61.7769 120.945 61.9136C120.971 62.0503 120.969 62.191 120.937 62.3267C120.906 62.4623 120.846 62.5899 120.763 62.7013C120.679 62.8126 120.573 62.9051 120.451 62.973L119.896 63.0838Z" fill="#1F140A"/>
<path d="M101.472 44.6963H102.804C112.015 50.3456 120.34 61.755 120.451 61.8658C120.562 62.0873 120.451 62.3089 120.34 62.4196H120.007L119.785 62.3089C119.674 62.0873 110.795 50.0133 101.472 44.6963Z" fill="#756454"/>
<path d="M118.453 59.6493C118.564 60.5355 119.895 61.0893 121.893 60.9786C123.78 60.8678 123.003 55.5508 123.003 55.5508C123.003 55.5508 118.342 58.6524 118.453 59.6493Z" fill="#5E1313"/>
<path d="M130.661 55.1082C128.441 61.7545 127.331 70.5054 127.331 70.9484C131.327 75.4901 137.32 79.2563 141.76 80.4747L140.983 84.684C138.874 84.0194 130.439 82.1363 120.894 73.2746C120.783 73.0531 120.006 62.3083 120.672 53.2251L130.661 55.1082Z" fill="#F58D6C"/>
<path d="M120.45 59.8716C120.45 59.8716 125.556 61.4224 129.44 59.5393L130.106 57.3239L120.45 56.77V59.8716Z" fill="#D74225"/>
<path d="M118.453 59.5394C118.786 53.2254 121.116 47.4653 121.116 47.4653C122.781 43.6991 125.667 42.2591 128.774 43.0345C129.609 43.2543 130.383 43.6579 131.04 44.2158C131.697 44.7736 132.221 45.4714 132.572 46.2578C132.924 47.0442 133.094 47.8992 133.07 48.76C133.047 49.6207 132.831 50.4653 132.437 51.2315L132.104 51.8962L131.993 52.1177L131.882 52.3393L131.771 52.45V52.5608L131.66 52.6716L131.438 53.1146L131.216 53.6685L131.105 54.1116L130.883 54.5547L130.661 55.1085L129.551 59.5394C126.999 60.5363 119.23 56.7701 118.453 59.5394Z" fill="#592CAB"/>
<path d="M140.317 84.5738L144.645 85.9031C144.867 85.9031 145.2 85.5707 145.2 85.5707H145.755L146.643 84.7953L149.64 85.3492C150.084 85.2384 150.639 84.6846 150.084 84.0199C151.083 83.4661 150.195 82.5799 150.195 82.5799C148.974 82.8015 147.087 82.1368 146.643 81.9153C146.088 81.6938 142.315 79.5891 141.871 79.5891C141.538 79.5891 139.318 80.2537 138.874 80.9184C137.653 83.4661 140.317 84.5738 140.317 84.5738Z" fill="#F58D6C"/>
<path d="M122.892 72.8324C122.892 71.7247 121.893 70.8386 120.783 70.7278L120.894 72.9432L122.115 74.3832C122.559 73.9401 122.892 73.3863 122.892 72.8324Z" fill="#EF5C2E"/>
<path d="M118.674 59.6483C118.341 59.4268 118.341 58.8729 118.452 58.5406C119.451 55.8821 119.34 53.3344 119.451 50.6759C119.708 49.3967 120.238 48.1877 121.005 47.1312C121.473 46.6184 122.039 46.2042 122.67 45.9127C123.038 45.6524 123.452 45.4645 123.89 45.3589L124.667 45.4697C125.361 45.5179 126.035 45.7243 126.636 46.073C127.238 46.4217 127.751 46.9034 128.137 47.481C128.523 48.0587 128.771 48.7169 128.862 49.4052C128.953 50.0935 128.885 50.7934 128.663 51.4513L128.552 51.8944L128.441 52.1159V52.3375L128.33 52.4482V52.6698L128.219 53.0021L128.108 53.4452L127.997 53.8882L127.886 54.2206L127.775 54.6636L127.553 58.3191L126.887 58.5406L126.11 58.6514H123.447L122.559 58.5406C121.338 58.4299 120.117 58.5406 119.007 59.0945C118.785 59.2053 118.674 59.4268 118.674 59.6483Z" fill="#592CAB"/>
</g>
<mask id="mask8_281_20" style="mask-type:luminance" maskUnits="userSpaceOnUse" x="59" y="21" width="94" height="66">
<path d="M59.7266 21.4033H152.245V86.7639H59.7266" fill="white"/>
</mask>
<g mask="url(#mask8_281_20)">
<path d="M97.3054 51.1244C97.7449 48.8215 98.0745 46.7378 98.0745 45.8605C98.1844 44.2155 97.0856 43.1189 95.1078 44.1059C93.7892 44.9832 93.8991 45.9702 93.13 45.5315C92.6904 45.0928 90.8225 45.3122 90.6027 44.4349C90.383 43.5575 85.6581 37.6356 86.9767 46.0798C87.0866 46.4088 86.7569 46.8475 86.5372 47.0668C85.4384 47.8345 84.6692 47.3958 83.7902 48.3828C81.5926 51.0148 80.4938 55.8401 84.9989 60.0073C85.8779 60.8847 88.0755 57.9237 87.5261 60.446C89.5039 55.1821 92.3608 52.4404 97.3054 51.1244Z" fill="#5E1414"/>
<path d="M107.964 60.7743C107.964 60.7743 111.151 58.1424 110.711 55.62C110.711 55.62 104.668 48.3821 100.272 45.3115C95.8773 42.1312 88.6252 39.4992 87.1968 41.6925C86.3178 43.1182 90.6031 37.5253 93.3501 55.5104C94.1192 60.3357 100.272 60.0067 106.426 63.4063L107.964 60.7743Z" fill="#592CAB"/>
</g>
</g>
</svg>
